<svg width="32" height="32" viewBox="0 0 32 32" fill="none" xmlns="http://www.w3.org/2000/svg">
  <rect width="32" height="32" rx="8" fill="#1E40AF"/>
  <path d="M16 4L20 8H24V12L28 16L24 20V24H20L16 28L12 24H8V20L4 16L8 12V8H12L16 4Z" fill="#3B82F6"/>
  <path d="M16 8L18 10H22V14L24 16L22 18V22H18L16 24L14 22H10V18L8 16L10 14V10H14L16 8Z" fill="#60A5FA"/>
  <circle cx="16" cy="16" r="4" fill="#93C5FD"/>
  <path d="M14 16L15.5 17.5L18 15" stroke="#1E40AF" stroke-width="1.5" stroke-linecap="round" stroke-linejoin="round"/>
</svg>
